<?xml version="1.0" standalone="no"?>
<!DOCTYPE svg PUBLIC "-//W3C//DTD SVG 20010904//EN"
 "http://www.w3.org/TR/2001/REC-SVG-20010904/DTD/svg10.dtd">
<svg version="1.0" xmlns="http://www.w3.org/2000/svg"
 width="384.000000pt" height="384.000000pt" viewBox="0 0 384.000000 384.000000"
 preserveAspectRatio="xMidYMid meet">
<metadata>
Created by potrace 1.14, written by Peter Selinger 2001-2017
</metadata>
<g transform="translate(0.000000,384.000000) scale(0.100000,-0.100000)"
fill="#000000" stroke="none">
<path d="M1745 3830 c-491 -41 -970 -291 -1293 -675 -492 -585 -590 -1401
-252 -2083 106 -212 230 -382 392 -538 578 -553 1438 -690 2157 -344 401 194
711 505 902 905 216 455 246 952 86 1435 -277 837 -1099 1373 -1992 1300z
m783 -196 c286 -94 513 -259 618 -449 39 -70 42 -62 -72 -156 l-71 -58 -88 44
-89 45 -55 107 c-31 60 -86 150 -121 202 -62 91 -202 244 -265 290 l-30 22 35
-6 c19 -4 81 -22 138 -41z m-315 -151 c-7 -2 -19 -2 -25 0 -7 3 -2 5 12 5 14
0 19 -2 13 -5z m14 -20 c-20 -2 -52 -2 -70 0 -17 2 0 4 38 4 39 0 53 -2 32 -4z
m58 -23 c37 -5 12 -7 -90 -7 -90 0 -124 2 -95 7 62 10 125 10 185 0z m114 -41
c34 -9 40 -14 27 -19 -15 -5 -8 -10 28 -24 25 -10 44 -22 41 -26 -3 -5 7 -16
22 -24 16 -8 21 -15 13 -16 -10 0 -7 -7 10 -20 17 -13 20 -20 10 -20 -10 0 -7
-7 10 -20 14 -11 20 -20 13 -20 -12 0 -12 -17 0 -37 5 -8 3 -13 -3 -13 -6 0
-8 -5 -4 -12 16 -26 11 -48 -10 -48 -17 0 -18 -2 -6 -10 11 -7 7 -10 -19 -10
-29 0 -32 -2 -21 -15 11 -13 8 -15 -21 -15 -26 0 -30 -3 -19 -10 12 -7 8 -10
-15 -10 -23 0 -27 -3 -15 -10 13 -8 12 -10 -4 -10 -16 0 -15 -2 5 -19 l24 -19
-53 -8 c-40 -5 -50 -10 -42 -19 13 -16 -50 -25 -175 -25 -122 0 -187 9 -181
25 3 9 -11 15 -42 20 l-47 7 24 19 c18 15 20 19 7 19 -10 0 -14 5 -11 10 3 6
-4 10 -17 10 -18 0 -20 2 -8 10 11 7 7 10 -17 10 -25 0 -31 4 -27 15 5 11 -1
15 -21 15 -15 0 -24 4 -20 10 3 6 -3 10 -15 10 -15 0 -19 4 -13 13 4 6 8 21 8
32 0 11 4 26 8 33 5 7 3 12 -5 12 -9 0 -9 3 2 10 12 8 12 10 -5 11 -19 0 -18
1 3 11 24 12 30 28 10 28 -7 1 0 8 16 16 19 11 25 19 17 23 -7 5 -2 12 16 20
18 8 23 15 15 20 -7 4 9 14 40 26 41 15 48 20 32 25 -14 5 -3 11 41 20 33 7
65 14 70 16 22 8 283 -5 324 -17z m-186 -496 c-7 -2 -21 -2 -30 0 -10 3 -4 5
12 5 17 0 24 -2 18 -5z m15 -268 c66 -20 114 -62 140 -122 26 -60 104 -405 94
-414 -12 -11 -222 -51 -237 -45 -8 3 -15 15 -15 26 0 19 -3 18 -26 -10 -50
-59 -153 -92 -238 -76 -76 14 -136 97 -136 187 0 121 87 191 256 206 76 6 86
13 57 45 -28 31 -111 22 -265 -28 -13 -5 -19 8 -33 73 -9 43 -17 84 -18 92 -2
17 44 32 178 60 113 24 177 25 243 6z m-1398 -67 c0 -7 -9 -78 -19 -158 -10
-80 -29 -251 -40 -380 -31 -335 -17 -300 -131 -327 -137 -33 -134 -34 -181 72
-54 122 -229 560 -229 575 0 9 63 42 136 70 19 8 26 -6 93 -173 39 -100 80
-200 90 -222 l18 -40 6 55 c4 30 14 147 23 260 8 113 19 208 22 212 6 6 187
66 205 67 4 1 7 -5 7 -11z m944 -87 c9 -40 16 -81 16 -90 0 -10 -20 -31 -43
-48 -53 -37 -87 -101 -87 -165 0 -25 9 -90 20 -143 11 -54 19 -99 18 -100 -2
-1 -59 -14 -127 -29 -91 -19 -126 -24 -132 -15 -11 19 -113 548 -106 555 6 7
201 54 222 54 7 0 15 -14 19 -31 l6 -32 42 48 c41 46 116 91 129 77 4 -4 14
-40 23 -81z m-608 -76 c83 -24 149 -109 173 -223 6 -29 11 -56 11 -61 0 -4
-77 -25 -171 -46 l-171 -40 27 -22 c45 -39 171 -26 277 28 l36 19 7 -33 c3
-17 11 -56 17 -86 14 -63 10 -68 -81 -102 -87 -32 -198 -45 -263 -30 -134 29
-218 141 -218 290 0 157 87 271 234 307 67 16 65 16 122 -1z m2353 -331 c39
-32 54 -84 81 -272 30 -210 33 -195 -50 -228 -39 -15 -72 -25 -74 -23 -2 2
-13 68 -25 147 -24 160 -32 182 -64 182 -54 0 -57 -34 -27 -232 11 -72 19
-133 16 -135 -3 -3 -44 -17 -93 -33 l-88 -27 -7 26 c-7 25 -89 491 -92 521 -1
10 25 20 94 35 101 23 110 21 110 -25 0 -22 3 -20 26 16 34 52 69 73 121 74
30 0 50 -7 72 -26z m-829 -56 c6 -35 16 -85 22 -111 l10 -48 29 40 c53 71 167
103 239 66 35 -18 74 -68 89 -115 14 -46 72 -402 66 -408 -11 -11 -199 -61
-205 -55 -4 5 -19 78 -34 163 -17 98 -33 161 -43 173 -23 25 -62 18 -86 -15
l-20 -27 27 -153 c14 -84 26 -160 26 -169 0 -12 -28 -23 -111 -43 -61 -15
-112 -26 -115 -24 -3 4 -145 699 -148 727 -1 11 28 21 104 37 146 31 135 34
150 -38z m-918 -409 c32 -145 60 -295 64 -334 11 -121 -30 -235 -118 -331 -59
-64 -66 -64 -161 2 -45 31 -84 58 -86 60 -2 2 11 20 29 40 84 96 86 184 12
505 -28 125 -53 237 -54 250 -3 22 3 25 117 50 66 15 125 26 130 25 6 -2 36
-121 67 -267z m551 177 c110 -53 170 -151 171 -276 0 -91 -22 -147 -85 -215
-160 -174 -449 -135 -541 73 -77 174 20 376 211 437 70 23 177 14 244 -19z
m-1068 -93 c9 -43 18 -84 20 -90 5 -16 5 -16 -40 3 -45 19 -92 12 -129 -17
-21 -17 -26 -29 -26 -66 0 -39 5 -50 34 -77 l33 -32 -23 -28 c-44 -50 -28
-148 32 -195 47 -37 147 -21 174 28 5 11 10 34 10 51 l0 32 -49 -7 -48 -6 -17
66 c-9 37 -15 69 -13 71 2 2 48 13 103 24 54 11 108 22 120 25 19 4 23 -4 44
-96 27 -118 23 -188 -12 -251 -68 -123 -240 -162 -373 -83 -119 69 -183 223
-137 328 20 44 20 48 4 79 -58 117 2 255 130 299 29 10 74 18 100 19 l47 0 16
-77z"/>
<path d="M2076 2269 c-45 -36 -26 -99 31 -99 45 0 79 48 67 96 -5 19 -13 24
-39 24 -18 0 -44 -9 -59 -21z"/>
<path d="M1041 2239 c-31 -12 -50 -38 -51 -66 0 -19 3 -21 33 -13 17 5 51 14
75 20 47 12 54 31 20 54 -25 18 -42 19 -77 5z"/>
<path d="M2109 1571 c-43 -43 -41 -101 5 -147 43 -43 77 -44 117 -5 24 24 29
38 29 76 0 38 -5 52 -29 76 -20 20 -39 29 -61 29 -22 0 -41 -9 -61 -29z"/>
</g>
</svg>
